<?xml version="1.0" encoding="UTF-8"?><svg id="Layer_1" xmlns="http://www.w3.org/2000/svg" viewBox="0 0 115.67 21.22"><defs><style>.cls-1{fill:#16181c;}</style></defs><polygon class="cls-1" points="18.87 5.68 17.83 10.28 16.5 4.73 11.84 2.84 10.58 8.4 9.46 1.88 4.8 0 0 21.22 5.09 21.22 6.57 14.7 7.67 21.22 12.77 21.22 14.02 15.66 15.35 21.22 20.44 21.22 23.53 7.56 18.87 5.68"/><rect class="cls-1" x="52.57" y="9.11" width="1.36" height="12.11" rx=".68" ry=".68"/><rect class="cls-1" x="78.22" y="9.11" width="1.36" height="12.11" rx=".68" ry=".68"/><path class="cls-1" d="M39.84,15.93l-4.33-6.5c-.13-.2-.35-.32-.59-.32h-.16c-.37,0-.68,.31-.68,.68v10.75c0,.37,.31,.68,.68,.68s.68-.31,.68-.68V11.54s3.85,5.65,3.85,5.65c.17,.25,.36,.34,.55,.34h0c.19,0,.38-.08,.55-.34l3.85-5.65v9c0,.37,.31,.68,.68,.68s.68-.31,.68-.68V9.79c0-.37-.31-.68-.68-.68h-.16c-.24,0-.46,.12-.59,.32l-4.33,6.5h0Z"/><path class="cls-1" d="M92.31,15.93l-4.33-6.5c-.13-.2-.35-.32-.59-.32h-.16c-.37,0-.68,.31-.68,.68v10.75c0,.37,.31,.68,.68,.68s.68-.31,.68-.68V11.54s3.85,5.65,3.85,5.65c.17,.25,.36,.34,.55,.34h0c.19,0,.38-.08,.55-.34l3.85-5.65v9c0,.37,.31,.68,.68,.68s.68-.31,.68-.68V9.79c0-.37-.31-.68-.68-.68h-.16c-.24,0-.46,.12-.59,.32l-4.33,6.5h0Z"/><path class="cls-1" d="M69.89,19l-7.54-9.62c-.13-.17-.34-.27-.56-.27h-.21c-.37,0-.68,.31-.68,.68v10.75c0,.37,.31,.68,.68,.68h0c.37,0,.68-.31,.68-.68V11.33l7.44,9.49,.1,.13c.13,.17,.34,.27,.56,.27h.21c.37,0,.68-.31,.68-.68V9.79c0-.37-.31-.68-.68-.68h0c-.37,0-.68,.31-.68,.68v9.21Z"/><path class="cls-1" d="M115.61,20.31s-4.76-10.41-4.89-10.68-.41-.52-.86-.52-.73,.24-.86,.52-4.89,10.68-4.89,10.68c-.15,.32,0,.7,.32,.85,.32,.15,.7,0,.85-.32l1.27-2.83h6.64l1.27,2.83c.15,.32,.53,.46,.85,.32,.32-.15,.46-.53,.32-.85Zm-5.75-3.55h-2.76l2.76-6.14,2.76,6.14h-2.76Z"/></svg>