<?xml version="1.0" encoding="utf-8"?>
<!-- Generator: Adobe Illustrator 26.3.1, SVG Export Plug-In . SVG Version: 6.00 Build 0)  -->
<svg version="1.1" id="Layer_1" xmlns="http://www.w3.org/2000/svg" xmlns:xlink="http://www.w3.org/1999/xlink" x="0px" y="0px"
	 viewBox="0 0 200 200" style="enable-background:new 0 0 200 200;" xml:space="preserve">
<style type="text/css">
	.st0{fill:#FFFFFF;}
	.st1{fill:#17171C;}
	.st2{fill:#FF522E;}
	.st3{fill:#317AFF;}
	.st4{fill:#8F8F9B;}
</style>
<path class="st0" d="M20,0h160c11,0,20,9,20,20v160c0,11-9,20-20,20H20c-11,0-20-9-20-20V20C0,9,9,0,20,0z"/>
<g>
	<polygon class="st1" points="126.1,62.5 112.5,122.9 119.8,153.5 133.4,93.2 	"/>
	<polygon class="st1" points="87.3,46.8 71.3,117.6 77.4,153.6 93.4,82.8 	"/>
	<polygon class="st2" points="61.5,36.4 35.1,153.5 63.1,153.5 71.3,117.6 87.3,46.8 	"/>
	<polygon class="st3" points="100.4,52.1 93.4,82.8 77.4,153.5 105.5,153.5 112.5,122.9 126.1,62.5 	"/>
	<polygon class="st4" points="139.2,67.8 133.4,93.2 119.8,153.5 147.9,153.5 164.9,78.2 	"/>
</g>
</svg>
