<svg id="Layer_1" data-name="Layer 1" xmlns="http://www.w3.org/2000/svg" viewBox="0 0 200 200"><defs><style>.cls-1{fill:#fff;}.cls-2{fill:#17171c;}.cls-3{fill:#ff522e;}.cls-4{fill:#317aff;}.cls-5{fill:#8f8f9b;}</style></defs><rect class="cls-1" width="200" height="200" rx="9.84"/><polygon class="cls-2" points="121.78 65.36 110.39 115.73 116.51 141.31 127.88 90.94 121.78 65.36"/><polygon class="cls-2" points="89.41 52.29 76.05 111.33 81.17 141.32 94.53 82.26 89.41 52.29"/><polygon class="cls-3" points="67.91 43.61 45.82 141.31 69.25 141.31 76.03 111.32 89.39 52.28 67.91 43.61"/><polygon class="cls-4" points="100.31 56.71 94.52 82.28 81.17 141.31 104.61 141.31 110.39 115.73 121.79 65.36 100.31 56.71"/><polygon class="cls-5" points="132.69 69.77 127.9 90.94 116.51 141.31 139.94 141.31 154.15 78.44 132.69 69.77"/></svg>