<svg width="44" height="44" viewBox="0 0 44 44" fill="none" xmlns="http://www.w3.org/2000/svg">
<path d="M12.4893 31.5509H13.7843L28.0945 17.2407L26.767 15.9133L12.4893 30.2235V31.5509ZM31.2349 16.1723L27.8354 12.8052L29.1952 11.4454C29.4758 11.1433 29.8212 10.9922 30.2313 10.9922C30.6414 10.9922 30.9867 11.1433 31.2673 11.4454L32.5947 12.7405C32.8753 13.0211 33.0102 13.3664 32.9994 13.7765C32.9886 14.1866 32.8429 14.5427 32.5623 14.8449L31.2349 16.1723ZM30.1989 17.2084L14.3671 33.0078H11V29.6407L26.7994 13.8413L30.1989 17.2084ZM27.4469 16.5608L26.767 15.9133L28.0945 17.2407L27.4469 16.5608Z" fill="white"/>
<rect x="0.5" y="0.5" width="43" height="43" rx="21.5" stroke="white"/>
</svg>
