<svg width="45" height="45" viewBox="0 0 45 45" fill="none" xmlns="http://www.w3.org/2000/svg">
<circle cx="22.2568" cy="22.6328" r="21.5" stroke="white"/>
<path d="M12.7941 27.7531C11.8112 27.7531 10.9692 27.5392 10.2684 27.1115C9.56758 26.6791 9.0283 26.0784 8.65058 25.3093C8.27741 24.5402 8.09082 23.6482 8.09082 22.6334C8.09082 21.6186 8.27741 20.7266 8.65058 19.9575C9.0283 19.1884 9.56758 18.59 10.2684 18.1622C10.9692 17.7298 11.8112 17.5137 12.7941 17.5137C13.7771 17.5137 14.619 17.7298 15.3199 18.1622C16.0253 18.59 16.5645 19.1884 16.9377 19.9575C17.3154 20.7266 17.5043 21.6186 17.5043 22.6334C17.5043 23.6482 17.3154 24.5402 16.9377 25.3093C16.5645 26.0784 16.0253 26.6791 15.3199 27.1115C14.619 27.5392 13.7771 27.7531 12.7941 27.7531ZM12.7941 26.2036C13.454 26.2081 14.0024 26.0625 14.4393 25.7667C14.8807 25.4709 15.2107 25.0545 15.4291 24.5175C15.6521 23.9805 15.7636 23.3524 15.7636 22.6334C15.7636 21.9144 15.6521 21.2909 15.4291 20.763C15.2107 20.2305 14.8807 19.8164 14.4393 19.5206C14.0024 19.2248 13.454 19.0723 12.7941 19.0632C12.1343 19.0587 11.5859 19.2043 11.149 19.5001C10.7121 19.7959 10.3822 20.2123 10.1592 20.7493C9.94075 21.2863 9.83153 21.9144 9.83153 22.6334C9.83153 23.3524 9.94075 23.9782 10.1592 24.5106C10.3776 25.0385 10.7053 25.4504 11.1422 25.7462C11.5836 26.042 12.1343 26.1945 12.7941 26.2036Z" fill="white"/>
<path d="M23.0954 27.7531C22.3126 27.7531 21.6232 27.5939 21.027 27.2753C20.4354 26.9567 19.9712 26.5085 19.6344 25.9305C19.3022 25.3526 19.1361 24.6745 19.1361 23.8963V17.7321L20.8017 17.7185V23.8553C20.8017 24.2239 20.8632 24.5539 20.986 24.8451C21.1135 25.1364 21.2841 25.3844 21.498 25.5892C21.7119 25.7894 21.9577 25.9419 22.2353 26.0466C22.5129 26.1512 22.7996 26.2036 23.0954 26.2036C23.4003 26.2036 23.6893 26.1512 23.9623 26.0466C24.2399 25.9373 24.4857 25.7826 24.6996 25.5824C24.9134 25.3776 25.0818 25.1296 25.2047 24.8383C25.3276 24.547 25.389 24.2194 25.389 23.8553V17.7185H27.0546V23.8963C27.0546 24.6745 26.8862 25.3526 26.5495 25.9305C26.2173 26.5085 25.7531 26.9567 25.1569 27.2753C24.5653 27.5939 23.8781 27.7531 23.0954 27.7531Z" fill="white"/>
<path d="M31.5972 27.5483V19.2612H28.4162V17.7185H36.4234V19.2612H33.2424V27.5483H31.5972Z" fill="white"/>
</svg>
