<svg width="183" height="183" viewBox="0 0 183 183" fill="none" xmlns="http://www.w3.org/2000/svg">
<g clip-path="url(#clip0_1998_45156)">
<path d="M163.087 0H19.913C8.91537 0 0 8.91537 0 19.913V163.087C0 174.085 8.91537 183 19.913 183H163.087C174.085 183 183 174.085 183 163.087V19.913C183 8.91537 174.085 0 163.087 0Z" fill="white"/>
<path d="M70.3959 72.605L101.199 85.046L120.062 77.4245L126.656 48.2695L101.199 58.5529L52.8085 39.0088L35.2212 116.77L62.9379 105.575L70.3959 72.605Z" fill="#17191C"/>
<path d="M120.062 77.4245L112.604 110.395L81.8001 97.954L62.9378 105.576L56.3438 134.731L81.8001 124.447L130.191 143.991L147.778 66.2305L120.062 77.4245Z" fill="#17191C"/>
</g>
<defs>
<clipPath id="clip0_1998_45156">
<rect width="183" height="183" fill="white"/>
</clipPath>
</defs>
</svg>
