<svg width="45" height="45" viewBox="0 0 45 45" fill="none" xmlns="http://www.w3.org/2000/svg">
<circle cx="22.248" cy="22.9297" r="21.5" stroke="white"/>
<path d="M22.334 30.6233C21.2881 30.6233 20.3282 30.437 19.4543 30.0645C18.5804 29.6921 17.821 29.162 17.1763 28.4743C16.5316 27.7723 16.0302 26.9485 15.672 26.0029C15.3282 25.0573 15.1562 24.0186 15.1562 22.8868C15.1562 21.8123 15.3425 20.8166 15.715 19.8997C16.1018 18.9685 16.6319 18.1518 17.3053 17.4498C17.9786 16.7478 18.7594 16.2034 19.6477 15.8166C20.536 15.4297 21.4959 15.2363 22.5274 15.2363C23.258 15.2363 23.9672 15.3509 24.6549 15.5802C25.3569 15.7951 25.9873 16.1031 26.546 16.5042C27.1191 16.8911 27.5847 17.3352 27.9429 17.8366L26.3956 19.4484C25.9801 19.0329 25.5575 18.6891 25.1277 18.4169C24.7122 18.1303 24.2824 17.9154 23.8383 17.7722C23.4085 17.6289 22.9715 17.5573 22.5274 17.5573C21.8254 17.5573 21.1663 17.6934 20.5503 17.9656C19.9486 18.2235 19.4185 18.5888 18.96 19.0616C18.5159 19.5344 18.1649 20.1003 17.907 20.7593C17.6491 21.404 17.5202 22.1132 17.5202 22.8868C17.5202 23.7035 17.6419 24.4484 17.8855 25.1218C18.1434 25.7808 18.5016 26.3467 18.96 26.8195C19.4185 27.2923 19.9629 27.6576 20.5933 27.9155C21.238 28.1591 21.9471 28.2809 22.7208 28.2809C23.1936 28.2809 23.6592 28.2164 24.1177 28.0875C24.5761 27.9585 25.0059 27.7723 25.4071 27.5287C25.8082 27.2852 26.1735 26.9986 26.5031 26.6691L27.6635 28.5602C27.334 28.9471 26.8827 29.2981 26.3096 29.6133C25.7509 29.9284 25.1205 30.1792 24.4185 30.3654C23.7308 30.5373 23.036 30.6233 22.334 30.6233Z" fill="white"/>
</svg>
