<svg viewBox="0 0 380 65" fill="none" xmlns="http://www.w3.org/2000/svg">
<g clip-path="url(#clip0_329_4790)">
<path d="M106.505 25.5593C106.516 24.9658 106.756 24.3995 107.176 23.9797C107.596 23.56 108.162 23.3196 108.755 23.3093H109.275C109.709 23.3144 110.133 23.4324 110.506 23.6516C110.88 23.8709 111.19 24.1837 111.405 24.5593L125.805 46.2093L140.205 24.5593C140.422 24.1878 140.734 23.8801 141.108 23.6677C141.482 23.4552 141.905 23.3453 142.335 23.3493H142.855C143.441 23.3593 144.001 23.5945 144.418 24.006C144.835 24.4174 145.078 24.9737 145.095 25.5593V61.7993C145.098 62.4008 144.865 62.9794 144.447 63.4112C144.028 63.843 143.457 64.0936 142.855 64.1093C142.247 64.0966 141.667 63.8491 141.236 63.4186C140.806 62.9881 140.558 62.408 140.545 61.7993V31.7393L127.645 50.7393C127.458 51.081 127.183 51.3671 126.85 51.569C126.516 51.7709 126.135 51.8814 125.745 51.8893C125.341 51.8897 124.943 51.7837 124.592 51.5819C124.241 51.38 123.949 51.0895 123.745 50.7393L110.945 31.7993V61.8593C110.945 62.4481 110.712 63.0128 110.295 63.4291C109.879 63.8454 109.314 64.0793 108.725 64.0793C108.137 64.0793 107.572 63.8454 107.156 63.4291C106.739 63.0128 106.505 62.4481 106.505 61.8593V25.5593Z" fill="#16181C"/>
<path d="M168.425 25.5593C168.405 25.2479 168.448 24.9355 168.553 24.6416C168.658 24.3476 168.822 24.0784 169.036 23.8505C169.249 23.6226 169.507 23.4409 169.793 23.3167C170.079 23.1925 170.388 23.1284 170.7 23.1284C171.013 23.1284 171.321 23.1925 171.608 23.3167C171.894 23.4409 172.152 23.6226 172.365 23.8505C172.578 24.0784 172.743 24.3476 172.848 24.6416C172.953 24.9355 172.996 25.2479 172.975 25.5593V61.7993C172.996 62.1108 172.953 62.4231 172.848 62.7171C172.743 63.011 172.578 63.2803 172.365 63.5082C172.152 63.7361 171.894 63.9178 171.608 64.042C171.321 64.1662 171.013 64.2302 170.7 64.2302C170.388 64.2302 170.079 64.1662 169.793 64.042C169.507 63.9178 169.249 63.7361 169.036 63.5082C168.822 63.2803 168.658 63.011 168.553 62.7171C168.448 62.4231 168.405 62.1108 168.425 61.7993V25.5593Z" fill="#16181C"/>
<path d="M196.305 25.5592C196.313 24.9666 196.551 24.4003 196.969 23.9803C197.388 23.5603 197.953 23.3196 198.545 23.3092H199.185C199.648 23.3212 200.101 23.4481 200.502 23.6785C200.904 23.9089 201.242 24.2357 201.485 24.6292L225.965 55.8492V25.4592C225.945 25.1558 225.987 24.8515 226.089 24.5651C226.191 24.2786 226.351 24.0162 226.559 23.7941C226.767 23.572 227.018 23.3949 227.297 23.2739C227.576 23.1528 227.876 23.0903 228.18 23.0903C228.485 23.0903 228.785 23.1528 229.064 23.2739C229.343 23.3949 229.594 23.572 229.802 23.7941C230.01 24.0162 230.17 24.2786 230.272 24.5651C230.374 24.8515 230.416 25.1558 230.395 25.4592V61.8592C230.414 62.1386 230.373 62.4187 230.277 62.6815C230.18 62.9442 230.029 63.1837 229.834 63.3845C229.639 63.5853 229.404 63.7428 229.144 63.847C228.884 63.9512 228.605 63.9996 228.325 63.9892H228.095C227.618 63.9594 227.153 63.8193 226.738 63.5799C226.324 63.3405 225.97 63.0082 225.705 62.6092L200.705 30.6092V61.8592C200.726 62.1626 200.684 62.467 200.582 62.7534C200.48 63.0399 200.32 63.3023 200.112 63.5244C199.904 63.7465 199.653 63.9236 199.374 64.0446C199.095 64.1657 198.795 64.2282 198.49 64.2282C198.186 64.2282 197.886 64.1657 197.607 64.0446C197.328 63.9236 197.077 63.7465 196.869 63.5244C196.661 63.3023 196.501 63.0399 196.399 62.7534C196.297 62.467 196.255 62.1626 196.275 61.8592L196.305 25.5592Z" fill="#16181C"/>
<path d="M253.705 25.5593C253.685 25.2479 253.728 24.9355 253.833 24.6416C253.938 24.3476 254.102 24.0784 254.316 23.8505C254.529 23.6226 254.787 23.4409 255.073 23.3167C255.36 23.1925 255.668 23.1284 255.98 23.1284C256.293 23.1284 256.601 23.1925 256.888 23.3167C257.174 23.4409 257.432 23.6226 257.645 23.8505C257.858 24.0784 258.023 24.3476 258.128 24.6416C258.233 24.9355 258.276 25.2479 258.255 25.5593V61.7993C258.276 62.1108 258.233 62.4231 258.128 62.7171C258.023 63.011 257.858 63.2803 257.645 63.5082C257.432 63.7361 257.174 63.9178 256.888 64.042C256.601 64.1662 256.293 64.2302 255.98 64.2302C255.668 64.2302 255.36 64.1662 255.073 64.042C254.787 63.9178 254.529 63.7361 254.316 63.5082C254.102 63.2803 253.938 63.011 253.833 62.7171C253.728 62.4231 253.685 62.1108 253.705 61.7993V25.5593Z" fill="#16181C"/>
<path d="M281.605 25.5593C281.613 24.9667 281.851 24.4004 282.269 23.9804C282.688 23.5604 283.253 23.3197 283.845 23.3093H284.365C284.799 23.3144 285.223 23.4324 285.596 23.6516C285.97 23.8709 286.28 24.1837 286.495 24.5593L300.895 46.2093L315.295 24.5593C315.512 24.1878 315.824 23.8801 316.198 23.6677C316.572 23.4552 316.995 23.3453 317.425 23.3493H317.945C318.532 23.3592 319.093 23.594 319.512 24.0053C319.93 24.4165 320.175 24.9728 320.195 25.5593V61.7993C320.196 62.4017 319.961 62.9804 319.54 63.4119C319.12 63.8434 318.548 64.0937 317.945 64.1093C317.338 64.0965 316.759 63.8487 316.33 63.4179C315.901 62.9872 315.656 62.4071 315.645 61.7993V31.7393L302.705 50.6893C302.518 51.0316 302.244 51.3183 301.91 51.5203C301.577 51.7223 301.195 51.8324 300.805 51.8393C300.409 51.8321 300.021 51.7224 299.679 51.5209C299.338 51.3193 299.054 51.0329 298.855 50.6893L286.035 31.7993V61.8593C286.056 62.1627 286.014 62.4671 285.912 62.7535C285.81 63.0399 285.65 63.3023 285.442 63.5245C285.234 63.7466 284.983 63.9236 284.704 64.0447C284.425 64.1658 284.125 64.2282 283.82 64.2282C283.516 64.2282 283.216 64.1658 282.937 64.0447C282.658 63.9236 282.407 63.7466 282.199 63.5245C281.991 63.3023 281.831 63.0399 281.729 62.7535C281.627 62.4671 281.585 62.1627 281.605 61.8593V25.5593Z" fill="#16181C"/>
<path d="M340.635 60.8193L356.995 25.0593C357.205 24.466 357.596 23.9536 358.113 23.5947C358.63 23.2358 359.246 23.0485 359.875 23.0593H360.105C360.728 23.0458 361.338 23.2329 361.846 23.5931C362.354 23.9533 362.732 24.4674 362.925 25.0593L379.285 60.7693C379.455 61.1303 379.554 61.5208 379.575 61.9193C379.575 62.5001 379.345 63.0571 378.934 63.4678C378.523 63.8785 377.966 64.1093 377.385 64.1093C376.886 64.0875 376.405 63.9168 376.004 63.6191C375.603 63.3215 375.301 62.9105 375.135 62.4393L370.935 53.1593H348.815L344.615 62.5593C344.462 63.017 344.167 63.4144 343.773 63.6945C343.38 63.9747 342.908 64.1234 342.425 64.1193C342.152 64.1206 341.882 64.0677 341.629 63.9635C341.377 63.8593 341.148 63.706 340.955 63.5124C340.763 63.3189 340.61 63.089 340.507 62.8361C340.404 62.5832 340.353 62.3123 340.355 62.0393C340.349 61.616 340.445 61.1973 340.635 60.8193ZM369.145 49.0193L359.875 28.3993L350.605 49.0193H369.145Z" fill="#16181C"/>
<path d="M50.1054 14.7092L42.6954 47.4692L46.6754 64.1092L54.0854 31.3392L50.1054 14.7092Z" fill="#16181C"/>
<path d="M29.0454 6.19922L20.3654 44.6092L23.6854 64.1092L32.3754 25.6992L29.0454 6.19922Z" fill="#16181C"/>
<path d="M15.0754 0.559326L13.8054 6.19933L0.705444 64.1093H15.9454L20.3654 44.6093L29.0454 6.19933L15.0754 0.559326Z" fill="#FF512F"/>
<path d="M36.1354 9.06934L34.8654 14.7093L32.3754 25.6993L23.6854 64.1093H38.9354L42.6954 47.4693L50.1054 14.7093L36.1354 9.06934Z" fill="#317AFF"/>
<path d="M57.1954 17.5693L54.0854 31.3393L46.6754 64.1093H61.9154L71.1654 23.2093L57.1954 17.5693Z" fill="#91919D"/>
</g>
<defs>
<clipPath id="clip0_329_4790">
<rect width="378.87" height="63.55" fill="white" transform="translate(0.705444 0.559326)"/>
</clipPath>
</defs>
</svg>
